# xmcd CD database file
#
# Track frame offsets:
#	150
#	18178
#	38821
#	59306
#	76535
#	95962
#	117260
#	138122
#	155170
#	174017
#	193003
#	213757
#	234893
#
# Disc length: 3347 seconds
#
# Revision: 0
# Processed by: cddbd v1.5.2PL0 Copyright (c) Steve Scherf et al.
# Submitted via: CDex 1.70beta3
#
DISCID=990d110d
DTITLE=JABBERLOOP - JABBERLOOP台湾特選集
DYEAR=2011
DGENRE=Jazz
TTITLE0=WITH ALL MY LOVE
TTITLE1=Heavy ☆新曲
TTITLE2=Red
TTITLE3=スペース大怪獣の逆襲
TTITLE4=ソレソレ
TTITLE5=HERE WE GO!!
TTITLE6=CRYSTAL SKULL
TTITLE7=シロクマ
TTITLE8=Ugetsu
TTITLE9=LowbitFUNK
TTITLE10=Re:Loop
TTITLE11=Atmosphere Entry
TTITLE12=AREA51
EXTD=YEAR: 2011
EXTT0=
EXTT1=
EXTT2=
EXTT3=
EXTT4=
EXTT5=
EXTT6=
EXTT7=
EXTT8=
EXTT9=
EXTT10=
EXTT11=
EXTT12=
PLAYORDER=
